<svg width="35" height="35" viewBox="0 0 35 35" fill="none" xmlns="http://www.w3.org/2000/svg">
<path d="M5.83333 18.9584C6.63875 18.9584 7.29167 18.3054 7.29167 17.5C7.29167 16.6946 6.63875 16.0417 5.83333 16.0417C5.02792 16.0417 4.375 16.6946 4.375 17.5C4.375 18.3054 5.02792 18.9584 5.83333 18.9584Z" stroke="#11101D" stroke-width="2.91667"/>
<path d="M17.5001 18.9584C18.3055 18.9584 18.9584 18.3054 18.9584 17.5C18.9584 16.6946 18.3055 16.0417 17.5001 16.0417C16.6947 16.0417 16.0417 16.6946 16.0417 17.5C16.0417 18.3054 16.6947 18.9584 17.5001 18.9584Z" stroke="#11101D" stroke-width="2.91667"/>
<path d="M29.1666 18.9584C29.972 18.9584 30.6249 18.3054 30.6249 17.5C30.6249 16.6946 29.972 16.0417 29.1666 16.0417C28.3612 16.0417 27.7083 16.6946 27.7083 17.5C27.7083 18.3054 28.3612 18.9584 29.1666 18.9584Z" stroke="#11101D" stroke-width="2.91667"/>
</svg>
