<svg width="35" height="35" viewBox="0 0 35 35" fill="none" xmlns="http://www.w3.org/2000/svg">
<g clip-path="url(#clip0_219_180)">
<path d="M34.9213 1.50057C35.0009 1.3018 35.0203 1.08406 34.9773 0.874328C34.9343 0.664599 34.8307 0.472108 34.6793 0.320719C34.5279 0.169329 34.3354 0.0656999 34.1257 0.0226773C33.9159 -0.0203453 33.6982 -0.000868838 33.4994 0.078692L1.67787 12.8078H1.67568L0.686928 13.2015C0.499657 13.2762 0.336678 13.4012 0.215994 13.5627C0.0953096 13.7242 0.0216176 13.916 0.00305763 14.1167C-0.0155023 14.3175 0.0217922 14.5195 0.110822 14.7004C0.199851 14.8813 0.33715 15.034 0.507553 15.1418L1.40443 15.7106L1.40662 15.7149L12.3332 22.6668L15.8113 28.1312C17.5001 30.6249 17.5001 28.4374 17.5001 27.3437C17.4998 25.9537 17.7939 24.5795 18.363 23.3114C18.9321 22.0432 19.7634 20.91 20.802 19.9863C21.8406 19.0626 23.0631 18.3693 24.3889 17.952C25.7148 17.5348 27.114 17.4031 28.4944 17.5656L34.9213 1.50057ZM30.9116 5.63494L14.5185 22.0281L14.0482 21.2887C13.962 21.153 13.847 21.038 13.7113 20.9518L12.9719 20.4815L29.3651 4.08838L31.9419 3.05807L30.9138 5.63494H30.9116Z" fill="#85B6FF"/>
<path d="M35 27.3438C35 29.3743 34.1934 31.3217 32.7575 32.7575C31.3217 34.1934 29.3743 35 27.3438 35C25.3132 35 23.3658 34.1934 21.93 32.7575C20.4941 31.3217 19.6875 29.3743 19.6875 27.3438C19.6875 25.3132 20.4941 23.3658 21.93 21.93C23.3658 20.4941 25.3132 19.6875 27.3438 19.6875C29.3743 19.6875 31.3217 20.4941 32.7575 21.93C34.1934 23.3658 35 25.3132 35 27.3438ZM30.6403 23.6709C30.5171 23.5971 30.3805 23.5482 30.2384 23.5272C30.0963 23.5061 29.9514 23.5133 29.8121 23.5482C29.6727 23.5831 29.5416 23.6452 29.4262 23.7308C29.3109 23.8164 29.2135 23.9239 29.1397 24.0472L26.5803 28.3128L25.3837 27.1163C25.1784 26.9109 24.8998 26.7955 24.6094 26.7955C24.3189 26.7955 24.0404 26.9109 23.835 27.1163C23.6296 27.3216 23.5142 27.6002 23.5142 27.8906C23.5142 28.1811 23.6296 28.4596 23.835 28.665L25.5281 30.3559C25.7044 30.5325 25.9185 30.6666 26.1544 30.7479C26.3902 30.8293 26.6415 30.8558 26.8891 30.8254C27.1367 30.795 27.3741 30.7086 27.5833 30.5726C27.7925 30.4367 27.9679 30.2549 28.0962 30.0409L31.0166 25.1716C31.0904 25.0483 31.1393 24.9118 31.1603 24.7696C31.1814 24.6275 31.1742 24.4827 31.1393 24.3433C31.1044 24.204 31.0423 24.0728 30.9567 23.9575C30.8711 23.8421 30.7636 23.7447 30.6403 23.6709Z" fill="#85B6FF"/>
</g>
<defs>
<clipPath id="clip0_219_180">
<rect width="35" height="35" fill="white"/>
</clipPath>
</defs>
</svg>
