<svg width="35" height="35" viewBox="0 0 35 35" fill="none" xmlns="http://www.w3.org/2000/svg">
<g clip-path="url(#clip0_216_46)">
<path d="M34.4531 17.5C34.4531 26.865 26.8623 34.4531 17.5 34.4531C8.1377 34.4531 0.546875 26.865 0.546875 17.5C0.546875 8.14044 8.1377 0.546875 17.5 0.546875C26.8623 0.546875 34.4531 8.14044 34.4531 17.5ZM17.9549 6.15234C14.2296 6.15234 11.8535 7.72167 9.98771 10.5108C9.746 10.8721 9.82687 11.3595 10.1733 11.6222L12.5453 13.4207C12.9011 13.6905 13.4081 13.6263 13.6845 13.2757C14.9057 11.7268 15.743 10.8286 17.6017 10.8286C18.9982 10.8286 20.7256 11.7274 20.7256 13.0816C20.7256 14.1053 19.8805 14.6311 18.5016 15.4042C16.8935 16.3056 14.7656 17.4276 14.7656 20.2344V20.5078C14.7656 20.9608 15.1329 21.3281 15.5859 21.3281H19.4141C19.8671 21.3281 20.2344 20.9608 20.2344 20.5078V20.4167C20.2344 18.471 25.9209 18.39 25.9209 13.125C25.9209 9.16002 21.8081 6.15234 17.9549 6.15234ZM17.5 23.1055C15.7661 23.1055 14.3555 24.5161 14.3555 26.25C14.3555 27.9839 15.7661 29.3945 17.5 29.3945C19.2339 29.3945 20.6445 27.9839 20.6445 26.25C20.6445 24.5161 19.2339 23.1055 17.5 23.1055Z" fill="#FECF56"/>
</g>
<defs>
<clipPath id="clip0_216_46">
<rect width="35" height="35" fill="white"/>
</clipPath>
</defs>
</svg>
