<svg viewBox="0 0 16 16" fill="none" xmlns="http://www.w3.org/2000/svg">
		<path
			fill="currentColor"
			d="M3.72843 3.72686C3.83101 3.62428 3.97014 3.56665 4.1152 3.56665C4.26024 3.56665 4.39941 3.62432 4.50198 3.72686L8.00089 7.23392L11.4999 3.72675C11.6025 3.62424 11.7416 3.56665 11.8866 3.56665C12.0316 3.56665 12.1708 3.62428 12.2734 3.72686C12.3759 3.82944 12.4336 3.96857 12.4336 4.11363C12.4336 4.25864 12.3758 4.39784 12.2734 4.50041L8.76629 7.99932L12.2735 11.4984L12.274 11.4989C12.325 11.5495 12.3655 11.6096 12.3931 11.6759C12.4207 11.7421 12.4349 11.8132 12.4349 11.885C12.4349 11.9568 12.4207 12.0279 12.3931 12.0941C12.3655 12.1604 12.325 12.2206 12.274 12.2711L12.2727 12.2725C12.2221 12.3234 12.162 12.3639 12.0957 12.3915C12.0294 12.4191 11.9584 12.4333 11.8866 12.4333C11.8148 12.4333 11.7437 12.4191 11.6774 12.3915C11.6112 12.3639 11.551 12.3234 11.5005 12.2725L8.00089 8.76472L4.50179 12.272L4.50131 12.2725C4.45075 12.3234 4.39061 12.3639 4.32434 12.3915C4.25807 12.4191 4.18699 12.4333 4.1152 12.4333C4.04342 12.4333 3.97234 12.4191 3.90607 12.3915C3.8398 12.3639 3.77966 12.3234 3.7291 12.2725L3.72775 12.2711C3.67678 12.2206 3.63633 12.1604 3.60872 12.0941C3.58111 12.0279 3.56689 11.9568 3.56689 11.885C3.56689 11.8132 3.58111 11.7421 3.60872 11.6759C3.63633 11.6096 3.67678 11.5495 3.72775 11.4989L3.72824 11.4984L7.2355 7.99932L3.72835 4.50033C3.62582 4.39776 3.56822 4.25866 3.56822 4.11363C3.56822 3.96857 3.62585 3.82944 3.72843 3.72686Z"
		/>
</svg>
