<svg width="36" height="36" viewBox="0 0 36 36" fill="none" xmlns="http://www.w3.org/2000/svg">
	<path d="M13.7282 13.7269C13.8308 13.6243 13.9699 13.5667 14.115 13.5667C14.26 13.5667 14.3992 13.6243 14.5017 13.7269L18.0006 17.2339L21.4997 13.7267C21.6022 13.6242 21.7413 13.5667 21.8863 13.5667C22.0314 13.5667 22.1705 13.6243 22.2731 13.7269C22.3757 13.8294 22.4333 13.9686 22.4333 14.1136C22.4333 14.2586 22.3756 14.3978 22.2731 14.5004L18.766 17.9993L22.2733 21.4984L22.2738 21.4989C22.3248 21.5495 22.3652 21.6096 22.3928 21.6759C22.4204 21.7421 22.4346 21.8132 22.4346 21.885C22.4346 21.9568 22.4204 22.0279 22.3928 22.0941C22.3652 22.1604 22.3248 22.2206 22.2738 22.2711L22.2724 22.2725C22.2219 22.3234 22.1617 22.3639 22.0955 22.3915C22.0292 22.4191 21.9581 22.4333 21.8863 22.4333C21.8145 22.4333 21.7435 22.4191 21.6772 22.3915C21.6109 22.3639 21.5508 22.3234 21.5002 22.2725L18.0006 18.7647L14.5015 22.272L14.5011 22.2725C14.4505 22.3234 14.3904 22.3639 14.3241 22.3915C14.2578 22.4191 14.1868 22.4333 14.115 22.4333C14.0432 22.4333 13.9721 22.4191 13.9058 22.3915C13.8396 22.3639 13.7794 22.3234 13.7289 22.2725L13.7275 22.2711C13.6765 22.2206 13.6361 22.1604 13.6085 22.0941C13.5809 22.0279 13.5667 21.9568 13.5667 21.885C13.5667 21.8132 13.5809 21.7421 13.6085 21.6759C13.6361 21.6096 13.6765 21.5495 13.7275 21.4989L13.728 21.4984L17.2353 17.9993L13.7281 14.5003C13.6256 14.3978 13.568 14.2587 13.568 14.1136C13.568 13.9686 13.6256 13.8294 13.7282 13.7269Z" fill="#5E6A78"/>
</svg>
